<svg width="99" height="19" viewBox="0 0 99 19" fill="none" xmlns="http://www.w3.org/2000/svg">
<path d="M9.4183 13.5668L13.0038 15.8433C13.4662 16.135 14.0354 15.701 13.9002 15.1675L12.8615 11.084C12.8334 10.9708 12.8379 10.852 12.8744 10.7412C12.9109 10.6305 12.978 10.5323 13.0678 10.4579L16.2834 7.77592C16.7031 7.42733 16.4897 6.72304 15.9419 6.68747L11.7446 6.41713C11.6301 6.41047 11.52 6.37059 11.4278 6.30236C11.3355 6.23414 11.2652 6.14053 11.2253 6.03297L9.66018 2.09175C9.61875 1.97786 9.54328 1.87947 9.44401 1.80994C9.34474 1.74042 9.22648 1.70313 9.10528 1.70312C8.98409 1.70312 8.86582 1.74042 8.76655 1.80994C8.66728 1.87947 8.59181 1.97786 8.55038 2.09175L6.98528 6.03297C6.94539 6.14053 6.87503 6.23414 6.7828 6.30236C6.69058 6.37059 6.58047 6.41047 6.46595 6.41713L2.26862 6.68747C1.72084 6.72304 1.50741 7.42733 1.92714 7.77592L5.14272 10.4579C5.2326 10.5323 5.29965 10.6305 5.33615 10.7412C5.37265 10.852 5.37712 10.9708 5.34903 11.084L4.38863 14.8687C4.225 15.509 4.90796 16.0283 5.45574 15.6797L8.79226 13.5668C8.88582 13.5073 8.9944 13.4757 9.10528 13.4757C9.21616 13.4757 9.32474 13.5073 9.4183 13.5668Z" fill="#FCBD01"/>
<path d="M29.4515 13.5668L33.037 15.8433C33.4994 16.135 34.0686 15.701 33.9334 15.1675L32.8947 11.084C32.8666 10.9708 32.8711 10.852 32.9076 10.7412C32.9441 10.6305 33.0112 10.5323 33.101 10.4579L36.3166 7.77592C36.7364 7.42733 36.5229 6.72304 35.9751 6.68747L31.7778 6.41713C31.6633 6.41047 31.5532 6.37059 31.461 6.30236C31.3687 6.23414 31.2984 6.14053 31.2585 6.03297L29.6934 2.09175C29.652 1.97786 29.5765 1.87947 29.4772 1.80994C29.3779 1.74042 29.2597 1.70313 29.1385 1.70312C29.0173 1.70312 28.899 1.74042 28.7998 1.80994C28.7005 1.87947 28.625 1.97786 28.5836 2.09175L27.0185 6.03297C26.9786 6.14053 26.9082 6.23414 26.816 6.30236C26.7238 6.37059 26.6137 6.41047 26.4991 6.41713L22.3018 6.68747C21.754 6.72304 21.5406 7.42733 21.9603 7.77592L25.1759 10.4579C25.2658 10.5323 25.3329 10.6305 25.3694 10.7412C25.4059 10.852 25.4103 10.9708 25.3822 11.084L24.4218 14.8687C24.2582 15.509 24.9412 16.0283 25.4889 15.6797L28.8255 13.5668C28.919 13.5073 29.0276 13.4757 29.1385 13.4757C29.2494 13.4757 29.3579 13.5073 29.4515 13.5668Z" fill="#FCBD01"/>
<path d="M49.4847 13.5668L53.0702 15.8433C53.5326 16.135 54.1018 15.701 53.9666 15.1675L52.9279 11.084C52.8999 10.9708 52.9043 10.852 52.9408 10.7412C52.9773 10.6305 53.0444 10.5323 53.1342 10.4579L56.3498 7.77592C56.7696 7.42733 56.5561 6.72304 56.0083 6.68747L51.811 6.41713C51.6965 6.41047 51.5864 6.37059 51.4942 6.30236C51.4019 6.23414 51.3316 6.14053 51.2917 6.03297L49.7266 2.09175C49.6852 1.97786 49.6097 1.87947 49.5104 1.80994C49.4111 1.74042 49.2929 1.70313 49.1717 1.70312C49.0505 1.70312 48.9322 1.74042 48.833 1.80994C48.7337 1.87947 48.6582 1.97786 48.6168 2.09175L47.0517 6.03297C47.0118 6.14053 46.9414 6.23414 46.8492 6.30236C46.757 6.37059 46.6469 6.41047 46.5324 6.41713L42.335 6.68747C41.7872 6.72304 41.5738 7.42733 41.9936 7.77592L45.2091 10.4579C45.299 10.5323 45.3661 10.6305 45.4026 10.7412C45.4391 10.852 45.4435 10.9708 45.4154 11.084L44.455 14.8687C44.2914 15.509 44.9744 16.0283 45.5221 15.6797L48.8587 13.5668C48.9522 13.5073 49.0608 13.4757 49.1717 13.4757C49.2826 13.4757 49.3911 13.5073 49.4847 13.5668Z" fill="#FCBD01"/>
<path d="M69.5179 13.5668L73.1034 15.8433C73.5658 16.135 74.135 15.701 73.9998 15.1675L72.9611 11.084C72.9331 10.9708 72.9375 10.852 72.974 10.7412C73.0105 10.6305 73.0776 10.5323 73.1674 10.4579L76.383 7.77592C76.8028 7.42733 76.5893 6.72304 76.0415 6.68747L71.8442 6.41713C71.7297 6.41047 71.6196 6.37059 71.5274 6.30236C71.4351 6.23414 71.3648 6.14053 71.3249 6.03297L69.7598 2.09175C69.7184 1.97786 69.6429 1.87947 69.5436 1.80994C69.4443 1.74042 69.3261 1.70313 69.2049 1.70312C69.0837 1.70312 68.9654 1.74042 68.8662 1.80994C68.7669 1.87947 68.6914 1.97786 68.65 2.09175L67.0849 6.03297C67.045 6.14053 66.9746 6.23414 66.8824 6.30236C66.7902 6.37059 66.6801 6.41047 66.5656 6.41713L62.3682 6.68747C61.8204 6.72304 61.607 7.42733 62.0268 7.77592L65.2423 10.4579C65.3322 10.5323 65.3993 10.6305 65.4358 10.7412C65.4723 10.852 65.4767 10.9708 65.4486 11.084L64.4882 14.8687C64.3246 15.509 65.0076 16.0283 65.5554 15.6797L68.8919 13.5668C68.9854 13.5073 69.094 13.4757 69.2049 13.4757C69.3158 13.4757 69.4243 13.5073 69.5179 13.5668Z" fill="#FCBD01"/>
<path d="M89.5521 13.5668L93.1376 15.8433C93.6 16.135 94.1691 15.701 94.034 15.1675L92.9953 11.084C92.9672 10.9708 92.9717 10.852 93.0082 10.7412C93.0447 10.6305 93.1118 10.5323 93.2016 10.4579L96.4172 7.77592C96.8369 7.42733 96.6235 6.72304 96.0757 6.68747L91.8784 6.41713C91.7639 6.41047 91.6538 6.37059 91.5615 6.30236C91.4693 6.23414 91.399 6.14053 91.3591 6.03297L89.794 2.09175C89.7525 1.97786 89.6771 1.87947 89.5778 1.80994C89.4785 1.74042 89.3603 1.70313 89.2391 1.70312C89.1179 1.70312 88.9996 1.74042 88.9003 1.80994C88.8011 1.87947 88.7256 1.97786 88.6842 2.09175L87.1191 6.03297C87.0792 6.14053 87.0088 6.23414 86.9166 6.30236C86.8244 6.37059 86.7143 6.41047 86.5997 6.41713L82.4024 6.68747C81.8546 6.72304 81.6412 7.42733 82.0609 7.77592L85.2765 10.4579C85.3664 10.5323 85.4334 10.6305 85.4699 10.7412C85.5064 10.852 85.5109 10.9708 85.4828 11.084L84.5224 14.8687C84.3588 15.509 85.0417 16.0283 85.5895 15.6797L88.926 13.5668C89.0196 13.5073 89.1282 13.4757 89.2391 13.4757C89.3499 13.4757 89.4585 13.5073 89.5521 13.5668Z" fill="#FCBD01"/>
</svg>
